<?xml version="1.0" standalone="no"?>
<!DOCTYPE svg PUBLIC "-//W3C//DTD SVG 20010904//EN"
 "http://www.w3.org/TR/2001/REC-SVG-20010904/DTD/svg10.dtd">
<svg version="1.0" xmlns="http://www.w3.org/2000/svg"
 width="2096.000000pt" height="2096.000000pt" viewBox="0 0 2096.000000 2096.000000"
 preserveAspectRatio="xMidYMid meet">
<metadata>
Created by potrace 1.14, written by Peter Selinger 2001-2017
</metadata>
<g transform="translate(0.000000,2096.000000) scale(0.100000,-0.100000)"
fill="#000000" stroke="none">
<path d="M5311 17009 c-160 -28 -243 -119 -354 -389 -89 -214 -131 -403 -162
-720 -29 -304 -35 -518 -45 -1520 -15 -1597 -37 -2567 -85 -3700 -118 -2763
-345 -4744 -646 -5627 -27 -80 -83 -216 -124 -302 -116 -246 -162 -415 -152
-562 10 -158 84 -249 203 -249 139 0 385 173 507 357 191 288 474 1027 722
1888 197 683 319 1216 430 1870 61 362 120 664 170 871 85 348 204 1115 335
2144 141 1111 247 1762 288 1778 23 8 157 -65 294 -161 221 -155 434 -326
1073 -859 2030 -1693 3036 -2460 4035 -3080 855 -530 1645 -907 3005 -1433
129 -50 155 -64 196 -105 60 -60 128 -198 168 -343 80 -285 131 -799 131
-1314 0 -398 67 -652 207 -792 94 -92 194 -128 339 -118 177 11 254 99 303
344 42 213 58 455 71 1128 22 1142 45 1520 130 2210 66 535 146 1219 215 1845
119 1085 239 1980 320 2400 84 433 173 1185 244 2045 90 1091 101 1444 50
1670 -18 82 -92 225 -156 305 -142 175 -294 261 -468 262 -135 1 -259 -47
-412 -161 -135 -101 -200 -188 -248 -331 -99 -298 -140 -782 -240 -2820 -41
-838 -66 -1267 -101 -1750 -122 -1697 -295 -3009 -423 -3217 -19 -30 -21 -31
-62 -22 -208 47 -1422 629 -2224 1067 -295 161 -392 219 -710 422 -143 92
-350 222 -460 289 -1874 1153 -3581 2824 -4577 4481 -168 279 -300 529 -465
879 -160 339 -286 587 -374 738 -195 332 -364 502 -559 564 -75 24 -298 35
-389 18z"/>
</g>
</svg>
